<svg width="998" height="570" viewBox="0 0 998 570" fill="none" xmlns="http://www.w3.org/2000/svg">
<path d="M799.698 497.262C799.698 497.262 797.344 497.262 799.698 485.483C802.052 473.701 802.052 455.638 806.764 450.14C811.477 444.645 827.185 438.361 838.964 432.081C850.746 425.797 857.812 417.944 862.524 417.944C867.237 417.944 865.665 425.011 871.949 417.944C878.233 410.874 879.015 417.158 885.299 417.944L891.583 418.727C891.583 418.727 890.011 425.011 891.583 428.937C893.152 432.863 895.51 433.649 901.004 432.081C906.502 430.509 913.572 416.008 915.927 414.622C918.284 413.232 921.425 428.937 922.997 434.435C924.565 439.933 935.561 454.07 939.487 461.922C943.414 469.775 914.355 505.9 908.074 507.472C901.79 509.04 882.941 505.9 879.801 507.472C876.661 509.04 869.693 493.335 869.251 491.764C868.808 490.195 864.879 492.55 864.879 492.55C864.879 492.55 855.458 485.483 849.174 486.265C842.89 487.051 831.111 493.335 827.185 494.121C823.259 494.907 813.049 494.121 813.049 494.121L807.55 498.834L799.698 497.262Z" fill="#F44A45"/>
<path d="M881.898 529.723C881.898 529.723 883.47 523.439 883.993 520.299C884.516 517.159 890.277 516.109 890.277 516.109C890.277 516.109 891.845 522.394 890.277 525.534C888.705 528.678 881.898 529.723 881.898 529.723Z" fill="#F44A45"/>
<path d="M942.628 539.671C942.628 539.671 943.674 531.295 948.386 529.723C953.098 528.152 969.852 516.633 974.041 516.11C978.231 515.587 974.041 525.534 974.041 525.534C974.041 525.534 957.81 537.053 953.624 539.671C949.435 542.288 942.042 542.425 942.628 539.671Z" fill="#167C51"/>
<path d="M983.989 516.091C983.989 516.091 988.178 508.256 988.701 504.07C989.223 499.881 992.89 496.74 992.89 496.74C992.89 496.74 994.458 505.621 994.985 506.414C995.508 507.21 997.076 508.782 997.076 511.922C997.076 515.063 985.034 520.824 983.989 520.298C982.943 519.775 982.434 519.22 983.989 516.091Z" fill="#167C51"/>
<path d="M876.661 374.228C876.661 374.228 880.064 383.129 881.373 383.652C882.681 384.175 894.723 386.792 898.127 389.41C901.53 392.027 899.699 395.694 898.127 397.266C896.555 398.834 899.435 401.451 901.79 401.192C904.148 400.929 906.765 402.237 907.551 403.809C908.337 405.378 912.786 407.213 914.095 406.164C915.403 405.118 916.975 400.929 918.807 400.406C920.638 399.883 926.659 398.834 927.182 400.406C927.708 401.974 931.371 405.209 932.943 406.472C934.512 407.735 938.441 407.567 941.319 406.472C944.199 405.378 940.01 404.332 938.441 403.286C936.869 402.237 934.512 400.665 933.203 396.48C931.894 392.29 933.729 390.982 930.326 389.15C926.922 387.315 912.263 377.368 908.337 376.322C904.407 375.273 891.057 378.417 887.13 377.108C883.204 375.799 883.204 373.442 882.159 372.919C881.11 372.396 874.829 369.789 876.661 374.228Z" fill="#167C51"/>
<path d="M938.179 388.102C938.179 388.102 942.369 388.056 944.463 389.519C946.554 390.982 948.649 391.505 946.818 392.028C944.986 392.551 939.751 394.386 938.179 392.814C936.607 391.242 935.807 387.94 938.179 388.102Z" fill="#035755"/>
<path d="M848.218 399.643C848.218 399.643 851.492 396.587 854.113 396.587C856.734 396.587 860.007 398.113 860.007 398.113C860.007 398.113 855.204 400.734 853.022 401.39C850.839 402.043 846.65 400.895 848.218 399.643Z" fill="#035755"/>
<path d="M835.556 399.082C835.556 399.082 838.177 396.148 840.577 395.713C842.98 395.275 846.689 396.583 846.689 396.583C846.689 396.583 844.071 397.868 841.124 399.082C838.177 400.296 834.517 400.11 835.556 399.082Z" fill="#035755"/>
<path d="M834.463 401.579C834.463 401.579 837.084 401.986 838.175 401.579C839.266 401.172 838.831 404.228 837.302 404.228C835.772 404.228 833.372 404.077 834.463 401.579Z" fill="#035755"/>
<path d="M825.045 398.041C825.045 398.041 827.463 396.757 829.677 396.297C831.894 395.838 835.185 395.518 834.547 396.297C833.908 397.076 832.901 398.824 831.087 399.101C829.277 399.378 823.101 398.932 825.045 398.041Z" fill="#035755"/>
<path d="M794.347 389.519C794.347 389.519 797.084 387.466 801.308 388.095C805.536 388.726 811.006 389.751 814.487 390.765C817.967 391.782 823.192 395.754 825.427 395.624C827.665 395.494 829.157 396.764 826.423 397.112C823.687 397.459 815.22 397.677 811.126 396.586C807.027 395.494 802.54 392.933 799.312 392.684C796.087 392.438 792.621 390.403 794.347 389.519Z" fill="#0C6C44"/>
<path d="M837.956 387.975C837.956 387.975 835.009 379.775 834.626 376.28C834.244 372.789 838.938 364.491 839.486 363.074C840.03 361.653 850.292 361.87 852.91 360.888C855.531 359.905 852.036 365.365 849.528 365.365C847.015 365.365 842.689 365.909 841.033 366.674C839.373 367.438 840.247 369.73 840.577 369.73C840.903 369.73 846.033 369.838 846.689 370.495C847.345 371.151 844.156 373.115 844.222 373.659C844.289 374.207 847.236 379.445 847.345 381.084C847.454 382.722 846.58 387.305 846.033 386.87C845.489 386.434 842.868 384.796 842.542 383.487C842.212 382.175 841.229 379.993 839.921 379.775C838.612 379.554 839.265 383.487 839.265 384.905C839.265 386.322 838.405 389.259 837.956 387.975Z" fill="#0C6C44"/>
<path d="M852.91 372.351C852.91 372.351 855.423 372.678 856.184 373.881C856.949 375.081 855.188 375.407 853.939 375.299C852.693 375.19 850.946 372.569 852.91 372.351Z" fill="#035755"/>
<path d="M861.645 368.421C861.645 368.421 861.536 365.148 861.645 363.4C861.754 361.653 861.971 359.579 862.845 359.579C863.719 359.579 865.792 363.183 865.466 364C865.14 364.818 864.361 367.765 863.547 368.421C862.736 369.077 861.68 369.955 861.645 368.421Z" fill="#0C6C44"/>
<path d="M867.104 373.224C867.104 373.224 869.396 373.245 870.378 373.835C871.36 374.424 871.908 375.01 871.36 375.319C870.817 375.624 868.413 375.445 867.761 375.319C867.104 375.189 865.701 373.122 867.104 373.224Z" fill="#035755"/>
<path d="M804.223 360.771C804.545 360.655 808.7 359.034 811.426 359.034C814.156 359.034 816.777 352.157 819.942 351.719C823.106 351.283 825.485 345.171 827.899 344.189C830.313 343.206 835.955 346.041 835.373 346.915C834.787 347.789 832.604 350.192 831.731 351.827C830.857 353.466 831.513 358.052 832.169 359.578C832.822 361.108 835.004 363.181 834.625 363.62C834.243 364.055 828.759 374.971 827.899 376.718C827.04 378.465 825.184 379.883 822.889 379.991C820.598 380.104 812.977 379.339 810.893 378.356C808.809 377.374 807.279 373.086 806.735 371.683C806.188 370.276 804.879 368.42 804.77 366.567C804.658 364.711 803.479 361.038 804.223 360.771Z" fill="#167C51"/>
<path d="M762.308 345.716C762.308 345.716 769.511 348.228 771.041 349.428C772.571 350.628 776.827 356.305 779.448 359.144C782.065 361.982 786.433 365.038 786.76 366.347C787.086 367.659 793.595 377.484 793.889 378.684C794.184 379.884 795.233 385.126 793.889 385.234C792.545 385.343 785.56 383.487 784.36 381.849C783.156 380.214 777.153 374.754 776.935 372.351C776.718 369.951 774.206 362.509 772.897 360.772C771.588 359.035 768.967 359.144 768.093 357.944C767.22 356.74 764.929 351.284 763.399 350.846C761.873 350.411 761.325 345.365 762.308 345.716Z" fill="#0C6C44"/>
<path d="M792.216 371.369C792.216 371.369 792.216 374.572 793.416 375.32C794.616 376.064 795.272 377.046 795.711 376.72C796.146 376.39 796.472 375.099 796.146 373.836C795.819 372.569 792.118 370.032 792.216 371.369Z" fill="#035755"/>
<path d="M714.601 330.979V338.512C714.601 340.147 719.373 343.561 719.608 343.982C719.84 344.406 721.152 337.199 721.152 335.891C721.152 334.582 714.601 328.687 714.601 330.979Z" fill="#0C6C44"/>
<path d="M542.177 231.83C542.177 231.83 544.388 232.402 545.124 232.647C545.861 232.893 548.809 234.121 548.482 234.451C548.152 234.777 544.798 234.942 544.468 234.942C544.142 234.942 542.096 235.594 541.686 234.942C541.275 234.286 539.721 231.584 540.047 231.83C540.377 232.075 541.177 231.567 542.177 231.83Z" fill="#035755"/>
<path d="M510.087 221.432C510.087 221.432 513.115 223.071 514.097 223.316C515.079 223.562 516.146 225.362 516.637 226.099C517.129 226.836 514.588 226.018 514.097 225.688C513.606 225.362 511.395 225.197 510.659 224.625C509.922 224.053 509.315 221.025 510.087 221.432Z" fill="#035755"/>
<path d="M497.639 211.527C497.639 211.527 499.032 212.835 499.439 213.327C499.85 213.818 498.867 216.604 499.439 217.502C500.014 218.404 498.643 220.533 498.59 220.042C498.541 219.551 496.902 217.667 496.246 216.519C495.594 215.376 495.429 214.719 495.594 213.572C495.755 212.428 496.846 210.765 497.639 211.527Z" fill="#035755"/>
<path d="M496.003 204.403C496.003 204.403 494.939 206.041 496.003 206.694C497.066 207.35 498.869 208.333 498.869 208.333C498.869 208.333 499.031 207.431 498.869 206.368C498.704 205.305 496.473 203.013 496.003 204.403Z" fill="#035755"/>
<path d="M481.676 214.391C481.676 214.391 482.413 215.58 482.904 215.724C483.395 215.865 484.542 215.149 484.949 215.058C485.36 214.963 483.314 213.98 483.314 213.735C483.314 213.489 481.676 214.391 481.676 214.391Z" fill="#035755"/>
<path d="M475.371 216.684C475.371 216.684 475.781 216.154 476.925 215.722C478.073 215.291 479.466 215.375 479.873 215.291C480.283 215.21 479.957 216.028 479.22 216.684C478.483 217.34 477.501 218.238 476.027 218.403C474.553 218.568 474.308 219.221 474.553 218.568C474.799 217.912 474.41 217.379 475.371 216.684Z" fill="#035755"/>
<path d="M455.231 171.272C455.231 171.272 455.778 169.308 456.76 167.669C457.743 166.034 457.304 161.339 457.631 160.574C457.96 159.81 460.908 155.554 461.016 155.224C461.125 154.897 453.813 148.129 453.483 147.147C453.157 146.164 453.701 143.217 454.139 142.126C454.574 141.035 457.304 135.684 457.852 135.466C458.395 135.249 460.034 135.466 460.034 135.466C460.034 135.466 460.69 137.54 461.564 138.087C462.434 138.631 464.511 139.396 465.055 139.943C465.602 140.487 466.146 147.694 466.364 148.347C466.585 149.003 470.406 156.971 470.841 157.192C471.279 157.41 475.753 160.901 475.862 161.339C475.97 161.774 474.879 168.543 474.335 168.873C473.788 169.199 468.767 170.616 468.22 170.725C467.676 170.837 466.585 171.929 465.381 172.146C464.181 172.364 455.231 171.272 455.231 171.272Z" fill="#167C51"/>
<path d="M440.381 160.902C440.381 160.902 441.799 155.773 442.673 154.681C443.546 153.587 446.167 151.622 447.15 151.187C448.132 150.752 453.5 149.657 453.381 150.204C453.262 150.752 452.827 154.352 452.827 154.899C452.827 155.443 454.135 158.064 454.027 158.829C453.918 159.593 451.297 164.067 450.314 164.723C449.332 165.379 442.346 167.014 442.129 166.362C441.911 165.706 441.581 163.523 441.581 163.523C441.581 163.523 440.816 162.65 440.381 162.32C439.946 161.993 440.381 160.902 440.381 160.902Z" fill="#167C51"/>
<path d="M453.381 134.811C453.381 134.811 451.514 136.709 451.188 137.288C450.862 137.867 450.206 140.162 450.532 140.049C450.862 139.94 451.953 139.288 452.718 138.849C453.479 138.414 453.823 136.667 454.034 136.228C454.244 135.793 453.381 134.811 453.381 134.811Z" fill="#035755"/>
<path d="M467.565 124.987C467.565 124.987 465.6 127.061 465.274 127.825C464.944 128.59 463.979 130.117 464.625 130.225C465.274 130.338 467.456 128.917 467.565 128.808C467.674 128.699 467.891 128.594 468.439 127.611C468.982 126.625 467.565 124.987 467.565 124.987Z" fill="#035755"/>
<path d="M602.82 85.7974C602.82 85.7974 603.694 84.1588 604.129 83.8325C604.567 83.5062 606.532 82.7413 606.859 82.7413C607.188 82.7413 607.732 85.471 606.859 85.7974C605.985 86.1237 603.476 87.5447 603.476 87.5447C603.476 87.5447 602.518 86.3377 602.82 85.7974Z" fill="#41294A"/>
<path d="M609.259 69.7504C609.259 69.7504 610.459 64.8382 611.658 63.4172C612.862 61.9997 620.504 51.6281 621.265 51.4105C622.03 51.193 624.869 49.772 626.29 49.2281C627.707 48.6808 626.29 54.6841 626.29 54.6841C626.29 54.6841 626.725 54.7964 627.707 54.5753C628.69 54.3578 630.654 54.0315 630.654 54.6841V58.07C630.654 58.07 621.921 64.3997 621.813 65.0558C621.704 65.7119 621.374 71.4977 621.374 71.4977C621.813 73.024 623.451 76.5186 623.451 77.066C623.451 77.6098 623.342 79.7922 623.342 79.7922C623.342 79.7922 618.865 78.5923 617.883 78.1572C616.9 77.7186 613.953 73.245 613.406 73.024C612.862 72.8065 611.006 71.7153 610.459 71.2802C609.915 70.8416 609.259 69.7504 609.259 69.7504Z" fill="#0C6C44"/>
<path d="M630.657 48.354C630.657 48.354 629.457 49.5539 629.018 50.4276C628.583 51.3013 630.657 52.2837 631.639 52.9398C632.622 53.5924 634.478 53.4837 635.243 52.9398C636.008 52.3925 639.281 49.1925 639.281 49.1925C639.173 48.4627 636.334 47.2628 635.352 47.2628C634.369 47.2628 630.657 48.354 630.657 48.354Z" fill="#0C6C44"/>
<path d="M645.188 44.3147C645.188 44.3147 639.701 45.2971 639.294 45.9532C638.887 46.6058 643.157 48.3532 644.171 48.3532C645.188 48.3532 646.613 48.683 647.83 48.3532C649.051 48.0269 651.083 45.4059 651.083 45.4059C651.083 45.4059 648.006 43.7357 645.188 44.3147" fill="#0C6C44"/>
<path d="M618.809 407.283C618.809 407.283 616.518 412.851 615.862 413.342C615.206 413.834 609.311 419.398 607.837 420.381C606.364 421.367 604.725 422.511 604.234 423.658C603.743 424.805 601.616 428.079 601.943 428.735C602.269 429.388 603.743 431.191 603.743 432.009C603.743 432.826 601.616 436.265 601.125 438.068C600.634 439.868 599.652 447.236 600.143 448.219C600.634 449.201 602.269 454.604 604.073 455.261C605.872 455.917 614.223 443.471 615.206 441.177C616.188 438.886 615.37 437.903 616.679 436.921C617.991 435.938 619.465 423.493 619.956 422.019C620.448 420.546 622.083 419.728 622.247 419.072C622.412 418.416 620.939 407.774 620.609 407.283C620.283 406.792 620.448 405.974 618.809 407.283Z" fill="#167C51"/>
<path d="M601.291 323.773C601.291 323.773 601.782 324.264 603.747 325.412C605.712 326.556 608.168 324.429 610.298 324.591C612.424 324.756 621.269 322.135 622.904 322.135C624.543 322.135 625.199 322.654 624.543 325.752C623.887 328.85 620.613 342.278 619.304 344.734C617.992 347.19 603.15 361.27 600.01 364.383C596.87 367.495 589.828 376.172 589.667 376.989C589.502 377.81 590.158 390.582 590.81 392.217C591.467 393.856 592.775 397.624 592.94 399.75C593.105 401.88 592.284 416.781 591.632 418.746C590.975 420.711 575.748 433.318 575.092 435.121C574.435 436.921 573.453 439.868 574.109 440.525C574.765 441.177 576.73 441.998 576.074 444.454C575.418 446.91 574.334 449.037 573.892 450.023C573.453 451.005 570.179 451.005 568.871 452.64C567.558 454.279 567.888 458.208 566.906 460.991C565.923 463.777 563.138 466.724 561.664 469.18C560.19 471.636 555.769 475.236 554.622 477.692C553.478 480.152 551.675 482.116 551.022 483.099C550.366 484.081 538.25 485.064 535.794 486.046C533.338 487.029 532.191 489.155 530.391 489.32C528.588 489.485 524.331 489.32 524.331 489.32C524.331 489.32 521.219 484.899 520.893 483.26C520.563 481.625 518.763 479.004 519.254 476.383C519.746 473.762 512.704 456.408 511.721 454.279C510.739 452.149 510.413 438.886 510.248 435.939C510.086 432.991 504.143 428.244 504.739 426.279C505.335 424.314 505.5 417.108 505.827 415.469C506.157 413.834 508.939 407.683 509.756 405.764C510.577 403.845 510.739 400.897 510.739 399.259C510.739 397.624 509.265 395.82 509.265 394.02C509.265 392.217 509.43 389.27 509.43 388.779C509.43 388.287 499.441 373.06 498.458 371.751C497.476 370.442 497.311 369.13 497.476 367.004C497.641 364.874 498.02 362.088 497.42 361.27C496.82 360.453 496.876 352.92 497.42 351.446C497.967 349.972 494.529 346.043 494.529 346.043L486.669 345.06C486.669 345.06 482.74 339.983 481.922 339.822C481.101 339.657 478.154 339.166 477.336 339.657C476.519 340.148 473.242 341.131 472.259 341.131H466.2C466.2 341.131 464.4 343.913 462.761 344.243C461.126 344.569 459.161 344.895 459.161 344.895L456.54 343.26C456.54 343.26 452.119 342.439 450.481 342.769C448.846 343.095 446.716 344.404 446.06 344.404C445.407 344.404 443.113 344.404 442.621 344.243C442.13 344.078 426.902 329.833 425.594 327.868C424.281 325.903 419.369 319.026 419.208 318.205C419.043 317.387 418.387 310.184 418.387 310.184L416.096 308.216C416.096 308.216 416.587 304.125 416.913 302.812C417.24 301.504 420.352 296.426 420.843 295.609C421.334 294.791 420.025 293.153 420.19 292.335C420.352 291.514 421.99 289.058 421.99 289.058C421.99 289.058 420.352 283.655 420.517 282.02C420.682 280.381 420.19 280.051 421.173 277.76C422.155 275.469 421.499 267.936 421.99 266.954C422.482 265.971 433.779 256.473 435.418 256.147C437.053 255.821 438.365 253.364 438.365 253.364C438.365 253.364 438.2 249.27 438.527 247.305C438.857 245.34 446.225 236.098 447.533 235.232C448.846 234.368 451.302 230.93 451.954 230.93H467.512C468.986 230.93 471.933 227.818 473.077 227.818C474.224 227.818 500.258 228.148 500.915 227.818C501.571 227.491 502.062 237.972 503.044 238.133C504.027 238.298 508.121 240.589 508.448 241.245C508.774 241.902 509.532 242.719 509.725 242.884C509.921 243.045 516.269 244.193 516.697 244.684C517.125 245.175 521.219 250.905 521.219 250.905C521.219 250.905 527.605 250.905 528.096 250.579C528.588 250.252 531.044 245.01 531.535 244.358C532.026 243.702 533.5 243.702 535.138 243.702C536.777 243.702 541.033 245.501 541.689 245.501C542.342 245.501 542.671 250.087 542.998 250.579C543.324 251.07 545.289 248.287 545.78 248.287C546.271 248.287 555.769 250.579 556.917 251.07C558.064 251.561 568.601 262.112 570.506 263.164C572.414 264.213 577.548 278.578 578.204 279.725C578.856 280.872 579.021 284.311 579.021 284.311C579.021 284.311 581.804 286.276 582.295 287.914C582.786 289.549 584.042 292.879 584.698 294.191C585.354 295.5 586.39 299.212 588.028 300.521C589.667 301.83 590.319 306.907 590.975 307.889C591.632 308.872 591.793 312.64 592.449 312.802C593.105 312.966 595.723 314.114 596.705 314.931C597.687 315.749 599.326 317.879 600.308 318.696C601.291 319.517 601.291 323.773 601.291 323.773Z" fill="#167C51"/>
<path d="M278.603 567.754C278.603 567.754 274.673 565.789 272.27 564.698C269.87 563.607 267.249 561.642 267.249 561.642C267.249 561.642 265.94 559.238 265.067 559.021C264.193 558.803 260.263 561.421 260.263 561.421L263.102 567.754C263.102 567.754 268.34 569.501 269.435 569.936C270.526 570.375 278.603 567.754 278.603 567.754Z" fill="#0C6C44"/>
<path d="M266.378 553.126L264.63 547.888C264.63 547.888 270.525 541.993 271.181 539.807C271.837 537.625 272.055 531.074 272.055 531.074L269.434 527.801C269.434 527.801 276.202 517.759 276.641 516.011C277.076 514.264 276.641 510.117 276.641 510.117C276.641 510.117 277.076 509.026 278.605 508.587C280.132 508.152 282.314 503.131 283.409 501.819C284.5 500.51 295.198 496.363 295.633 495.489C296.072 494.615 296.507 491.559 296.507 491.559C296.507 491.559 293.451 484.57 294.542 483.917C295.633 483.261 300.654 483.917 300.654 483.917C300.654 483.917 311.352 472.998 315.938 467.542C320.524 462.083 320.085 452.915 321.397 449.638C322.706 446.364 340.39 438.07 341.92 435.449C343.446 432.828 347.597 416.017 347.597 416.017C347.597 416.017 349.341 403.137 349.997 401.172C350.653 399.207 357.639 396.369 358.074 394.183C358.512 392.001 359.168 377.808 359.168 377.808C359.168 377.808 347.597 374.752 347.158 373.226C346.723 371.696 346.723 369.731 345.632 368.64C344.537 367.549 332.313 366.019 331.439 365.801C330.566 365.584 325.106 358.601 325.106 358.601C325.106 358.601 315.313 359.482 313.769 358.601C312.226 357.724 311.899 355.759 311.899 355.759C311.899 355.759 312.008 349.426 311.899 347.9C311.791 346.37 303.057 338.946 300.654 337.419C298.254 335.89 287.991 331.96 286.244 330.434C284.5 328.904 282.753 322.792 282.097 321.918C281.444 321.044 262.23 318.862 261.574 318.424C260.918 317.988 254.806 314.932 254.806 314.932C254.806 314.932 251.75 318.423 250.659 317.771C249.568 317.115 248.694 312.746 247.82 312.746C246.947 312.746 241.487 316.024 241.487 316.024C241.487 316.024 236.905 317.115 235.814 318.206C234.719 319.297 232.537 324.318 231.445 324.757C230.354 325.192 227.516 325.848 227.516 325.848C227.516 325.848 226.207 329.56 226.642 330.434C227.081 331.307 229.263 335.455 229.263 335.455C229.263 335.455 228.824 344.188 228.172 344.844C227.516 345.496 218.565 357.517 218.347 358.601C218.126 359.689 218.347 363.401 218.347 363.401C218.347 363.401 221.839 366.457 220.965 368.64C220.091 370.822 216.818 374.099 216.818 375.408C216.818 376.717 221.403 383.267 222.495 383.924C223.586 384.576 223.803 393.309 224.46 394.183C225.116 395.057 234.501 408.158 235.593 409.032C236.684 409.905 250.441 421.473 250.876 423.877C251.315 426.277 253.497 436.757 252.406 443.526C251.315 450.294 250.003 459.027 249.129 461.648C248.255 464.265 248.912 487.447 248.476 489.395C248.038 491.338 247.603 494.398 246.947 495.051C246.291 495.707 247.164 511.864 247.603 514.482C248.038 517.103 248.912 524.744 247.603 527.144C246.291 529.548 245.417 533.913 245.638 535.225C245.855 536.534 248.038 542.646 248.255 543.519C248.476 544.393 248.694 548.105 248.694 548.105L252.624 551.161L253.497 556.182C253.497 556.182 257.862 557.273 258.953 557.491C260.045 557.712 260.266 555.309 260.266 555.309C260.266 555.309 262.23 556.4 264.63 555.747C267.034 555.091 266.378 553.126 266.378 553.126Z" fill="#167C51"/>
<path d="M212.232 273.34C212.232 273.34 222.873 272.848 224.021 273.34C225.168 273.831 235.648 280.543 236.631 281.034C237.613 281.525 243.017 283.981 243.017 283.981C243.017 283.981 241.543 285.129 240.396 285.455C239.248 285.785 231.228 285.455 231.228 285.455C231.228 285.455 229.754 281.525 228.933 281.034C228.115 280.543 223.203 277.925 222.056 277.596C220.909 277.269 213.87 279.36 213.87 279.36C213.87 279.36 210.923 277.434 210.432 276.778C209.94 276.122 212.232 273.34 212.232 273.34Z" fill="#0C6C44"/>
<path d="M229.751 289.55C229.751 289.55 233.355 290.206 234.663 290.533C235.972 290.859 237.446 292.824 237.446 292.824C237.446 292.824 234.172 292.498 233.6 292.824C233.025 293.154 229.751 292.824 229.751 292.824C229.751 292.824 228.674 289.35 229.751 289.55Z" fill="#0C6C44"/>
<path d="M243.015 289.542C243.015 289.542 244.654 290.353 245.798 289.542C246.945 288.732 248.583 287.093 249.566 287.093C250.548 287.093 254.478 286.767 255.296 287.093C256.113 287.423 258.573 288.388 257.917 289.542C257.26 290.697 254.478 293.97 253.331 293.97C252.183 293.97 249.236 294.626 248.745 293.97C248.254 293.317 246.945 292.97 246.945 292.97C246.945 292.97 244.654 292.335 243.998 292.17C243.341 292.005 241.099 289.212 243.015 289.542Z" fill="#0C6C44"/>
<path d="M298.033 175.093C298.033 175.093 309.658 164.777 310.64 165.595C311.623 166.416 310.64 171.328 310.64 171.328C310.64 171.328 312.145 172.472 313.77 172.637C315.391 172.802 316.208 177.714 316.538 178.366C316.864 179.023 316.538 184.752 315.391 184.752C314.243 184.752 311.787 182.952 311.787 182.952L304.254 181.805L301.798 180.822C301.798 180.822 297.051 180.005 297.216 179.349C297.377 178.696 298.033 175.093 298.033 175.093Z" fill="#F44A45"/>
<path d="M231.389 104.683C231.389 104.683 234.501 98.4624 235.81 97.6414C237.119 96.8238 241.704 96.3326 241.704 96.3326C241.704 96.3326 244.325 101.736 244.982 101.901C245.634 102.062 249.564 104.683 249.564 104.683L248.42 105.666H241.704C241.704 105.666 237.448 109.431 236.792 109.595C236.136 109.76 230.747 105.922 231.389 104.683Z" fill="#F44A45"/>
<path d="M239.085 110.74C239.085 110.74 238.268 113.196 239.085 113.361C239.903 113.523 242.85 112.049 243.18 110.74L243.506 109.432C243.506 109.432 239.376 109.586 239.085 110.74Z" fill="#F44A45"/>
<path d="M254.807 106.484L253.333 109.6C253.333 109.6 252.842 109.922 254.807 109.431C256.772 108.94 258.245 106.484 258.245 106.484C258.245 106.484 256.607 105.175 254.807 106.484Z" fill="#F44A45"/>
<path d="M257.263 102.966C257.263 102.966 265.778 104.681 266.922 104.681C268.069 104.681 270.36 109.102 271.673 109.432C272.981 109.759 277.732 109.934 279.367 111.401C281.006 112.871 284.609 117.944 285.427 117.783C286.244 117.618 285.427 115.162 285.427 115.162L282.971 107.804C282.971 107.804 289.03 113.713 289.683 113.372C290.339 113.032 291.321 102.966 291.321 102.966C291.321 102.966 286.735 96.822 286.574 96.3308C286.409 95.8396 287.065 94.8571 288.209 94.6922C289.356 94.5308 293.777 99.1167 295.416 98.9518C297.051 98.7869 303.932 91.2537 303.932 91.2537C303.932 91.2537 287.065 80.9382 288.374 80.447C289.683 79.9558 290.174 79.7944 290.174 79.1382C290.174 78.4821 291.321 75.2085 291.321 75.2085C291.321 75.2085 283.627 66.2017 282.479 66.2017H277.241C277.241 66.2017 277.076 66.0368 274.785 64.4018C272.49 62.7632 258.245 61.9457 258.245 61.9457C258.245 61.9457 255.298 57.3599 254.806 57.0335C254.315 56.7037 248.421 57.0335 248.421 57.0335C248.421 57.0335 244.817 65.0544 244.326 64.4018C243.835 63.7457 244.326 60.6335 244.326 60.6335L245.965 55.395L240.452 56.3774C240.452 56.3774 233.684 63.5807 233.846 64.4018C234.011 65.2193 234.502 73.0787 234.502 73.0787C234.502 73.0787 239.379 75.5348 241.116 75.8646C242.852 76.1909 251.586 76.1909 253.277 76.1909C254.971 76.1909 259.719 75.5348 259.719 75.5348L262.175 74.0612L263.483 77.4997C263.483 77.4997 265.613 81.9206 266.269 82.0855C266.922 82.2504 272.49 84.0504 272.49 84.0504C272.49 84.0504 271.999 90.2713 271.999 90.7625C271.999 91.2537 267.087 95.6782 266.269 96.3308C265.448 96.9869 260.21 100.261 259.554 100.261C258.901 100.261 256.045 102.724 257.263 102.966Z" fill="#F44A45"/>
<path d="M266.758 84.213C266.758 84.213 262.828 86.5042 262.828 87.3252C262.828 88.1427 262.011 92.0725 262.828 91.9076C263.646 91.7462 266.267 88.6375 266.758 88.062C267.249 87.4866 266.758 84.213 266.758 84.213Z" fill="#F44A45"/>
<path d="M260.207 77.8281C260.207 77.8281 258.078 77.8281 257.26 78.9754C256.442 80.1193 255.758 81.2666 255.758 81.2666C255.758 81.2666 258.078 81.5929 259.06 81.2666C260.042 80.9403 261.025 79.621 261.025 79.621C261.025 79.621 261.039 77.7474 260.207 77.8281" fill="#F44A45"/>
<path d="M139.091 60.7991C139.091 60.7991 140.621 62.2166 140.73 62.5464C140.839 62.8727 140.73 65.82 140.73 65.82C140.73 65.82 150.88 66.4761 151.319 65.82C151.754 65.1674 152.737 61.7815 153.501 61.4552C154.266 61.1254 157.54 58.0693 157.54 58.0693C157.54 58.0693 158.196 62.0727 157.54 62.0903C156.884 62.1078 156.884 63.7464 156.884 63.7464L157.831 69.0971C157.831 69.0971 169.655 69.641 169.438 69.9673C169.22 70.2971 166.599 71.1707 166.599 71.1707C166.599 71.1707 158.631 72.2619 158.414 72.697C158.196 73.1356 157.975 75.2092 157.975 75.2092C157.975 75.2092 165.726 78.9214 166.929 79.574C168.129 80.2302 172.168 80.7775 172.824 80.6652C173.476 80.5565 176.862 78.3741 176.862 78.3741C176.862 78.3741 185.595 78.8127 186.578 78.8127C187.56 78.8127 190.834 79.6653 191.599 79.6197C192.364 79.574 195.42 79.6197 195.42 79.6197C195.42 79.6197 197.167 75.2092 197.711 74.9917C198.258 74.7707 199.676 73.5707 199.676 73.5707C199.676 73.5707 199.784 72.1532 199.676 71.4971C199.567 70.8409 192.146 62.6552 191.599 61.6727C191.051 60.6903 190.181 57.0869 190.181 57.0869H187.013C187.013 57.0869 185.704 59.3816 185.157 59.4903C184.613 59.5991 183.522 57.9606 183.522 57.9606L179.592 59.3816C179.592 59.3816 170.638 58.943 170.094 58.5079C169.547 58.0693 166.929 56.1045 166.929 56.1045L164.964 56.8694L163.652 55.3957C163.652 55.3957 164.526 54.687 164.743 54.0308C164.964 53.3747 164.635 51.8484 164.635 51.8484C164.635 51.8484 157.649 52.066 157.322 51.8484C156.993 51.6309 155.358 50.6485 154.919 50.5362C154.484 50.4274 145.095 50.5362 145.095 50.5362C145.095 50.5362 142.256 55.2308 142.147 55.9957C142.039 56.7606 139.091 60.7991 139.091 60.7991Z" fill="#F44A45"/>
<path d="M154.348 39.4022C154.348 39.4022 154.594 38.311 155.137 37.8724C155.685 37.4373 164.2 32.9603 164.744 32.7427C165.292 32.5252 173.151 32.7427 173.151 32.7427C173.151 32.7427 171.512 35.704 170.856 36.0233C170.204 36.3461 165.509 38.5285 165.509 38.5285C165.509 38.5285 163.955 41.5846 163.748 41.6934C163.544 41.8021 162.123 40.0583 162.123 40.0583C162.123 40.0583 154.169 39.9706 154.348 39.4022Z" fill="#F44A45"/>
<path d="M168.129 43.4431C168.129 43.4431 173.259 38.6397 173.806 38.4221C174.35 38.2046 179.375 41.5975 179.919 41.7028C180.466 41.8045 180.357 43.7694 180.357 44.4255C180.357 45.0816 177.41 47.6991 177.41 48.1377C177.41 48.5728 175.88 49.1201 175.88 49.1201C175.88 49.1201 175.017 47.5903 174.249 47.3728C173.48 47.1553 168.456 46.7167 168.129 46.6079C167.803 46.4991 167.207 44.2992 168.129 43.4431Z" fill="#F44A45"/>
<path d="M191.817 54.2486C191.817 54.2486 192.909 53.2662 193.673 53.1574C194.438 53.0487 195.53 53.1574 195.53 53.1574C195.53 53.1574 196.294 55.6662 195.53 55.996C194.765 56.3223 193.126 56.8696 193.126 56.8696C193.126 56.8696 192.035 55.0135 191.817 54.2486Z" fill="#F44A45"/>
<path d="M201.535 59.5976C201.535 59.5976 202.409 59.1625 203.391 58.9415C204.374 58.7239 206.886 58.9415 206.886 58.9415C206.886 58.9415 207.321 57.8503 206.886 57.3064C206.448 56.7591 205.683 56.2152 205.683 56.2152V54.9872C205.683 54.9872 211.577 54.4679 211.798 54.0293C212.016 53.5942 212.998 53.1697 213.325 53.11C213.651 53.0469 216.272 53.11 216.272 53.11C216.272 53.11 214.854 55.8854 214.416 55.8854C213.981 55.8854 212.56 56.8678 212.56 56.8678C212.56 56.8678 213.325 57.6327 213.763 57.959C214.198 58.2889 214.746 58.9415 214.854 59.5976C214.963 60.2537 214.198 63.201 214.198 63.201C214.198 63.201 211.033 66.8009 210.486 66.8009C209.942 66.8009 208.086 67.5658 207.648 66.8009C207.212 66.0395 206.556 63.9659 206.556 63.9659C206.556 63.9659 203.283 63.201 202.735 62.98C202.192 62.7624 201.535 59.5976 201.535 59.5976Z" fill="#F44A45"/>
<path d="M193.843 46.2472C193.843 46.2472 193.317 45.3244 192.58 44.9139C191.843 44.5033 189.633 43.0297 189.387 42.949C189.142 42.8683 187.096 42.3315 187.015 41.6999C186.931 41.0648 186.77 38.1175 187.422 37.7105C188.079 37.3 189.963 36.6439 189.963 36.6439C189.963 36.6439 190.78 38.693 191.107 38.8544C191.436 39.0193 192.647 40.0824 193.843 40.0824C195.04 40.0824 197.005 40.9034 197.005 40.9034C197.005 40.9034 195.531 42.2122 195.201 42.2122C194.875 42.2122 194.629 44.177 194.629 44.177L195.868 45.0788C195.868 45.0788 194.142 46.6857 193.843 46.2472Z" fill="#FA5652"/>
<path d="M180.366 31.9795C180.366 31.9795 179.892 30.5865 181.12 30.2602C182.348 29.9339 183.085 28.7866 183.085 28.7866C183.085 28.7866 185.134 26.4112 185.541 26.3305C185.952 26.2498 190.537 26.3305 190.537 26.3305C190.537 26.3305 188.488 28.7515 188.488 29.1374C188.488 29.5234 188.818 31.4883 188.818 31.4883C188.818 31.4883 187.751 33.5338 187.344 33.618C186.934 33.6987 182.187 34.1899 182.022 34.1092C181.857 34.025 180.366 31.9795 180.366 31.9795Z" fill="#F44A45"/>
<path d="M179.156 28.4592C179.156 28.4592 176.454 29.0312 176.454 29.6066C176.454 30.1785 174.489 31.8977 174.815 31.9784C175.145 32.0627 176.966 31.9784 176.966 31.9784C176.966 31.9784 178.664 30.9153 179.156 30.589C179.647 30.2592 180.629 28.0592 179.156 28.4592Z" fill="#FA5652"/>
<path d="M197.904 45.4527C197.904 45.4527 199.624 44.8352 200.28 44.8352H202.652C202.652 44.8352 202.325 46.6351 201.017 47.0456C199.704 47.4526 197.904 47.4526 197.904 47.4526C197.904 47.4526 196.452 45.9053 197.904 45.4527Z" fill="#F44A45"/>
<path d="M219.846 56.3771C219.846 56.3771 222.383 55.2298 223.449 55.3947C224.513 55.5596 226.804 54.9877 226.804 54.9877C226.804 54.9877 228.442 53.5106 230.242 53.5106H233.842C233.842 53.5106 232.453 56.2964 231.961 56.8684C231.47 57.4403 229.098 58.1771 229.098 58.1771H225.576C225.576 58.1771 224.021 60.5525 223.53 60.7174C223.039 60.8788 221.646 62.0261 221.239 62.0261H218.372C218.372 62.0261 218.59 56.8754 219.846 56.3771Z" fill="#FA5652"/>
<path d="M221.647 53.0819C221.647 53.0819 223.447 51.9556 225.005 51.9556H228.934C228.934 51.9556 227.622 54.0854 226.559 54.2503C225.496 54.4117 221.32 54.5766 221.075 54.6573C220.829 54.7415 221.647 53.0819 221.647 53.0819Z" fill="#FA5652"/>
<path d="M219.844 47.0445C219.844 47.0445 221.237 44.9989 221.564 44.834C221.89 44.6691 223.318 44.2831 224.981 44.1884C226.641 44.0972 228.932 44.1884 228.932 44.1884C228.932 44.1884 228.686 47.862 227.704 48.1076C226.721 48.3532 223.118 49.3356 221.809 49.6654C220.501 49.9918 219.844 47.0445 219.844 47.0445Z" fill="#F44A45"/>
<path d="M206.255 43.7644C206.255 43.7644 208.031 44.1784 208.901 44.8345C209.774 45.4871 211.658 46.2239 211.904 46.1432C212.15 46.0625 214.441 46.259 214.932 46.3257C215.423 46.3889 216.736 42.2697 216.736 42.2697C216.736 42.2697 218.125 40.4136 218.371 40.0838C218.616 39.7574 217.879 38.4101 217.879 38.4101H212.806C212.806 38.4101 211.739 37.9575 211.413 38.0382C211.087 38.1189 208.901 40.3294 208.901 40.3294L206.255 43.7644Z" fill="#F44A45"/>
<path d="M201.535 40.1671L203.472 38.0303C203.472 38.0303 204.539 38.1811 205.437 38.0303C206.338 37.8759 206.258 39.7565 206.258 39.7565C206.258 39.7565 204.619 41.6582 204.374 41.4863C204.128 41.3144 202.328 41.4863 202.328 41.4863C202.328 41.4863 200.623 41.174 201.535 40.1671" fill="#F44A45"/>
<path d="M198.396 32.0154C198.396 32.0154 199.01 33.3697 199.726 33.6154C200.442 33.861 201.266 34.5171 201.266 34.5171L202.652 35.0083C202.652 35.0083 202.326 32.3803 202.08 32.0154C201.835 31.6505 198.052 31.3944 198.396 32.0154Z" fill="#F44A45"/>
<path d="M212.34 24.174C212.34 24.174 209.722 22.7004 209.066 22.4267C208.414 22.153 206.256 22.4267 206.256 22.4267L205.466 24.174L202.898 26.2933C202.898 26.2933 201.053 28.0476 201.267 28.1037C201.481 28.1599 204.87 28.43 206.259 28.595C207.649 28.7599 211.905 28.3213 211.905 28.3213L213.379 30.2054C213.379 30.2054 215.017 30.8335 215.508 30.8335C215.999 30.8335 217.856 30.5598 217.856 30.5598C217.856 30.5598 217.308 27.6687 216.982 27.3388C216.656 27.0125 214.252 25.974 214.252 25.974C214.252 25.974 212.887 24.4793 212.34 24.174" fill="#F44A45"/>
<path d="M226.313 31.9797C226.313 31.9797 223.039 31.4885 222.601 30.8324C222.166 30.1798 221.457 29.4149 221.457 29.4149L219.38 27.1763C219.38 27.1763 223.583 25.8676 224.622 25.7027C225.657 25.5378 227.622 27.3939 227.787 27.6114C227.952 27.8325 228.278 29.1412 228.278 29.1412L228.934 30.3412L230.243 31.6394C230.243 31.6394 227.092 32.1166 226.313 31.9797Z" fill="#F44A45"/>
<path d="M228.387 32.2524C228.387 32.2524 230.243 32.0874 230.952 32.2524C231.66 32.4173 232.316 33.326 232.316 33.326L232.59 34.3821C232.59 34.3821 229.86 34.5435 229.534 34.3821C229.204 34.2172 228.331 33.9997 227.896 33.726C227.46 33.4523 228.387 32.2524 228.387 32.2524Z" fill="#FA5652"/>
<path d="M222.165 36.4544C222.165 36.4544 227.459 36.3457 228.277 36.4544C229.098 36.5632 230.571 37.272 230.571 37.272L232.589 38.0263C232.589 38.0263 230.298 39.1281 229.859 39.2368C229.424 39.3456 226.694 39.1842 226.477 39.2368C226.259 39.293 224.389 38.5281 224.389 38.5281C224.389 38.5281 222.929 38.5842 222.165 38.4754C221.4 38.3632 220.691 37.5456 220.691 37.5456C220.691 37.5456 221.347 36.1808 222.165 36.4544" fill="#FA5652"/>
<path d="M176.645 48.79C176.645 48.79 181.557 46.6848 182.757 46.9164C183.96 47.1515 189.855 46.9164 189.855 46.9164L194.493 46.1445L190.535 41.699L187.56 39.7587L181.774 41.699L177.859 40.5411L176.645 44.8322V48.79Z" fill="#F44A45"/>
<path d="M222.165 38.4745C222.165 38.4745 226.119 40.4955 226.109 40.4955C226.095 40.4955 228.825 42.3306 229.807 42.1762C230.789 42.0218 231.446 44.8323 231.446 44.8323L233.842 48.7901L235.375 49.6883C235.375 49.6883 240.722 48.1339 241.922 48.7901C243.126 49.4462 246.073 50.8777 246.508 50.4883C246.947 50.0988 252.077 49.169 254.259 49.6883C256.441 50.2111 261.027 50.5549 261.027 50.5549L264.722 48.7901C264.722 48.7901 261.245 45.4603 260.592 44.8323C259.936 44.2042 252.077 43.4428 252.077 43.4428C252.077 43.4428 242.143 43.5516 241.814 43.3341C241.487 43.113 239.084 39.6745 238.758 39.7587C238.431 39.8394 233.842 38.4745 233.842 38.4745H231.642H222.165Z" fill="#F44A45"/>
<path d="M259.718 55.3946C259.718 55.3946 260.957 58.0156 262.465 58.5068C263.974 58.998 268.886 59.4893 268.886 59.4893H272.981C272.981 59.4893 270.521 55.5595 268.886 55.3946C267.251 55.2297 259.718 55.3946 259.718 55.3946Z" fill="#F44A45"/>
<path d="M270.361 40.822C270.361 40.822 268.561 39.208 267.74 39.2782C266.922 39.3484 265.613 38.4747 265.613 38.4747L262.466 40.822C262.466 40.822 259.526 39.208 258.393 39.2782C257.263 39.3484 252.512 39.2782 252.512 39.2782L248.582 39.7589L242.688 39.6501L240.232 38.0291C240.232 38.0291 243.835 34.8011 244.326 34.4538C244.818 34.1099 245.961 32.2152 246.453 32.1801C246.944 32.1451 249.238 31.724 249.73 32.1801C250.221 32.6363 251.856 33.324 251.856 33.324L252.677 32.1801L251.53 30.2153L249.4 28.8469L250.547 28.4118L249.4 26.5698L246.453 28.4118H242.688L234.828 27.5592L231.881 20.3524L228.934 19.0436C228.934 19.0436 227.951 15.9314 228.934 15.9314C229.916 15.9314 232.59 12.8227 232.59 12.8227C232.59 12.8227 235.646 8.40181 236.302 8.40181C236.958 8.40181 242.032 9.87546 242.032 9.87546C242.032 9.87546 252.838 20.5173 253.003 21.0085C253.168 21.4997 254.312 25.7908 254.968 25.6926C255.624 25.5943 259.719 26.2926 259.719 26.2926C259.719 26.2926 258.87 22.9488 258.393 22.3067C257.915 21.6646 255.761 18.8787 255.761 18.8787L257.424 18.0612C257.424 18.0612 259.063 17.8963 261.028 19.0436L262.992 20.191L262.466 15.9314L258.393 14.6227L253.821 14.1315L249.428 12.6578C249.428 12.6578 246.944 11.0193 245.8 9.87546C244.653 8.72812 244.488 6.76325 244.488 6.76325L249.428 4.63348L255.761 2.99844L258.393 3.81596L262.466 2.99844C262.466 2.99844 266.754 1.52479 268.887 1.03358C271.017 0.542362 273.799 1.8511 278.055 1.03358C282.315 0.212546 283.624 -0.0155182 285.262 0.917791C286.901 1.8511 288.701 1.8511 288.701 1.8511L292.304 0.310791C292.304 0.310791 295.413 0.412543 299.834 0.310791C304.255 0.212548 306.219 0.310791 306.219 0.310791L310.149 2.99844L315.226 4.47209C315.226 4.47209 318.995 4.63349 319.486 5.1247C319.977 5.61592 316.538 8.2369 316.538 8.2369L307.04 9.21933C307.04 9.21933 305.893 15.1139 305.076 15.1139C304.255 15.1139 300.655 16.4227 300.655 16.4227C300.655 16.4227 294.104 19.0436 292.795 19.3699C291.483 19.6998 281.659 20.5454 281.659 20.5454C281.659 20.5454 280.841 26.0856 280.35 26.4119C279.859 26.7417 277.894 28.8469 277.894 28.8469L278.546 30.3416L270.034 36.4081C270.034 36.4081 272.326 37.7344 271.343 39.2782L270.361 40.822Z" fill="#F44A45"/>
<path d="M285.753 30.0132C285.753 30.0132 287.391 27.722 288.374 27.3922C289.356 27.0659 294.268 26.0835 294.268 26.0835C294.268 26.0835 301.146 23.6274 302.454 23.3011C303.767 22.9713 307.366 20.5433 307.366 20.5433C307.366 20.5433 304.093 20.3538 303.928 19.2065C303.766 18.0591 304.749 16.7504 304.749 16.7504C304.749 16.7504 306.223 13.8031 307.366 13.4733C308.514 13.147 313.77 11.5084 313.77 11.5084L316.208 9.38216C316.208 9.38216 327.345 6.10506 329.145 5.28753C330.948 4.47001 343.555 5.77875 347.32 5.28753C351.088 4.79632 353.379 4.30509 353.379 4.30509C353.379 4.30509 355.344 2.99637 357.965 2.34024C360.586 1.68412 370.245 1.0315 374.34 1.52271C378.431 2.01393 381.379 0.266613 381.379 0.266613C381.379 0.266613 404.139 -0.333372 406.104 0.266613C408.069 0.866597 415.111 2.01393 415.602 2.01393C416.093 2.01393 419.532 5.45244 418.714 5.28753C417.897 5.12263 414.129 6.26996 414.129 6.26996C414.129 6.26996 397.427 7.08749 396.61 7.5787C395.789 8.06992 395.627 9.70847 396.119 9.70847C396.61 9.70847 416.585 8.72604 417.076 8.89095C417.567 9.05235 414.95 12.9821 415.767 12.9821C416.585 12.9821 420.514 11.0172 421.006 11.0172C421.497 11.0172 439.293 11.5084 440.384 11.5084C441.475 11.5084 439.345 14.2943 439.345 14.2943C439.345 14.2943 433.616 16.0943 431.977 16.7504C430.339 17.4065 430.177 20.5152 429.356 20.5152C428.539 20.5152 424.118 22.4801 424.118 22.4801C424.118 22.4801 422.97 27.0659 422.318 28.5396C421.662 30.0132 419.532 31.8132 419.532 31.8132C419.532 31.8132 420.844 34.599 421.335 35.4166C421.827 36.2341 424.444 38.841 424.444 40.8971V42.9497C424.444 42.9497 419.041 41.2971 418.55 40.8971C418.058 40.4936 418.058 42.9497 418.058 42.9497L419.862 44.4234C419.862 44.4234 420.353 55.2301 419.862 56.2125C419.371 57.195 418.058 60.1423 418.058 60.1423L409.873 56.8686C409.873 56.8686 409.216 60.1423 409.873 60.1423C410.525 60.1423 413.802 62.7632 413.802 62.7632L414.458 66.693C414.458 66.693 410.034 65.0544 408.725 64.2369C407.416 63.4158 407.252 64.8895 407.252 64.8895L408.234 65.8719L413.146 68.4929C413.146 68.4929 414.62 72.0963 414.785 73.4051C414.95 74.7173 414.458 75.6997 414.458 75.6997H410.034L407.743 73.57L404.304 73.2402L401.192 74.0612L398.083 74.5524L397.592 76.6822L402.504 77.4997C402.504 77.4997 407.743 76.8436 409.543 77.4997C411.346 78.1558 407.087 81.4294 406.595 82.0855C406.104 82.7382 400.539 86.6679 399.883 86.6679C399.227 86.6679 397.754 86.3416 392.189 86.6679C386.62 86.9977 383.343 87.9801 383.343 87.9801L381.052 91.2537C381.052 91.2537 377.779 94.201 377.287 94.6922C376.796 95.1834 373.028 95.8396 373.028 95.8396H367.298C367.298 95.8396 366.481 99.1132 365.66 99.6044C364.842 100.096 358.948 106.973 358.948 106.973C358.948 106.973 355.67 114.997 354.527 116.962C353.379 118.927 352.562 121.709 351.579 122.53C350.597 123.348 348.141 125.804 348.141 125.804H343.72L334.057 118.762L330.618 107.629C330.618 107.629 329.31 107.464 329.145 106.32C328.983 105.173 326.033 95.3484 326.033 95.3484L326.198 86.5907L330.127 83.5592L331.931 82.5768L332.092 77.6646L330.948 76.8436L328.327 78.8084H325.706L326.854 74.0612L329.145 72.0963L333.404 71.7665L329.801 68.9841L325.05 67.8368C325.05 67.8368 324.068 55.395 323.25 54.4126C322.433 53.4301 319.531 50.553 319.531 50.553L315.882 44.5146L310.805 42.4585L305.893 40.8971L302.293 40.8199L298.689 40.8971H293.777L290.174 38.4726L287.553 37.5463L289.848 36.2341L292.795 34.2692L295.904 33.4517L294.921 32.3044H289.683L288.044 31.1605L285.753 30.0132Z" fill="#167C51"/>
<path d="M408.726 96.1676H412.82V98.2974H415.277L420.189 96.1676L429.031 95.1852L431.652 96.7395L433.778 100.589L430.013 107.957L424.936 109.922L419.698 111.886L417.077 109.595L411.347 108.448L408.726 102.88V102.062L407.579 99.6061L404.796 98.6237L406.27 96.6588L408.726 96.1676Z" fill="#167C51"/>
<path d="M100.231 161.83L103.343 163.959L106.617 167.068L107.764 170.015V171.819L103.996 169.363L100.887 166.822L100.231 163.468V161.83Z" fill="#FA5652"/>
<path d="M88.4412 131.537V135.302V138.414L85.0027 134.976V130.228C85.0027 130.228 87.1325 129.898 88.4412 131.537Z" fill="#DA5C5D"/>
<path d="M93.0249 138.415L95.6459 142.509V146.109L93.0249 143.818L90.5688 141.362L93.0249 138.415Z" fill="#FF5476"/>
<path d="M32.603 134.307L35.8766 131.044L38.9888 128.588L40.2976 130.199L38.1713 133.009L36.4521 135.465H33.4206L32.603 134.307Z" fill="#DA5C5D"/>
<path d="M861.539 253.63V245.343L863.195 241.697L866.181 244.35V249.322V253.63H861.539Z" fill="#F44A45"/>
<path d="M866.18 238.713L869.826 233.742H876.124L878.86 230.394L881.429 226.117C881.429 226.117 882.092 229.763 884.081 224.128L886.067 218.493V214.514H891.372L895.018 216.503V230.394L893.028 236.394L889.053 238.713L878.86 243.355C878.86 243.355 880.432 247.001 877.12 245.011L873.804 243.022L869.162 241.696H866.18V238.713Z" fill="#F44A45"/>
<path d="M885.075 209.875V205.567L888.057 201.258V196.286H893.362L897.008 198.272L900.653 200.261L897.008 206.23L891.706 209.875H888.72H885.075Z" fill="#F44A45"/>
<path d="M886.734 192.305L885.078 179.709V177.72L880.601 171.755V158.825H883.667L885.078 166.78L890.049 177.72L892.867 179.376V183.688V190.649V192.305H886.734Z" fill="#F44A45"/>
<path d="M800.437 296.502L804.858 292.744H809.054V296.502L804.745 299.597H803.837L800.437 296.502Z" fill="#0C6C44"/>
<path d="M834.832 283.242L836.678 277.495L838.667 274.846L840.878 273.741L843.53 278.491L839.18 283.242V285.452L834.832 286.337V283.242Z" fill="#0C6C44"/>
<path d="M836.678 297.165V305.119L834.832 309.982L838.004 313.74L841.983 316.613L843.527 311.087V303.575V297.165L839.18 296.172L836.678 297.165Z" fill="#0C6C44"/>
<path d="M845.738 312.854L846.623 316.612V317.938L849.717 320.366L850.822 316.612V312.854L849.275 311.749L845.738 312.854Z" fill="#0C6C44"/>
<path d="M852.467 320.369V322.579L850.822 326.558L848.278 327.66V330.976H849.495L852.467 329.649C852.467 329.649 855.018 327.218 856.123 325.674L857.228 324.127V321.695L852.467 320.369Z" fill="#0C6C44"/>
<path d="M839.182 316.611L844.568 318.379V320.369L841.876 321.253L839.182 320.369L838.448 318.93L839.182 316.611Z" fill="#0C6C44"/>
<path d="M829.606 330.976L832.037 325.671L834.83 323.243H837.339L838.444 324.565L837.339 328.544L834.83 330.976L834.027 334.955H829.606V330.976Z" fill="#0C6C44"/>
<path d="M844.568 338.49L850.82 334.953L852.753 330.977H855.462L856.866 332.3L857.23 334.732V338.49L856.866 342.91L854.304 343.777L850.82 342.04V340.258L845.74 342.04H844.568V338.49Z" fill="#0C6C44"/>
<path d="M974.847 99.6614C973.538 98.3526 947.339 86.781 946.465 86.56C945.592 86.3424 932.273 83.5039 931.62 84.3775C930.964 85.2512 930.526 88.9634 929.655 88.7459C928.782 88.5283 927.252 87.8722 927.252 87.8722L925.505 85.9073C925.505 85.9073 913.059 86.3424 911.751 86.3424C910.442 86.3424 907.821 88.9634 906.73 88.9634C905.638 88.9634 899.088 80.8864 897.997 80.6654C896.905 80.4478 878.292 79.7952 878.102 79.5742C877.909 79.3566 877.257 76.7356 875.727 76.3006C874.197 75.862 859.569 70.406 858.043 70.406H843.194C841.668 70.406 839.703 74.9918 839.703 74.9918C839.703 74.9918 825.511 75.4269 824.202 75.6444C822.893 75.862 822.237 76.7356 821.146 76.7356C820.055 76.7356 813.065 66.2587 811.539 65.8201C810.009 65.385 802.367 64.5114 800.403 64.7289C798.438 64.9465 796.694 66.6938 795.164 66.4763C793.634 66.2587 789.052 66.9113 787.74 66.0377C786.431 65.164 784.684 65.3149 783.375 64.6938C782.066 64.0728 771.586 63.8553 770.495 63.6377C769.403 63.4202 767.656 61.2343 766.344 61.4553C765.035 61.6729 759.576 64.7289 758.702 64.5114C757.832 64.2939 761.761 61.4378 761.761 61.4378C761.761 61.4378 768.53 56.8695 768.965 55.1222C769.403 53.3748 766.344 51.1924 765.253 49.6662C764.161 48.1364 761.761 46.8276 760.449 46.6066C759.141 46.3891 752.59 45.7329 750.407 44.8628C748.225 43.9891 746.695 41.5857 744.948 41.1506C743.201 40.712 741.018 40.9331 739.053 41.1506C737.088 41.3681 732.724 46.3891 731.632 46.6066C730.538 46.8276 717.222 47.9188 716.349 47.9188C715.475 47.9188 709.798 52.2836 708.051 52.5012C706.307 52.7222 702.156 54.2485 700.847 55.5608C699.539 56.8695 698.226 61.6729 696.479 61.6729C694.735 61.6729 689.493 61.2343 688.402 62.5465C687.311 63.8553 684.69 64.7289 686.002 65.6026C687.311 66.4763 694.735 71.7147 693.64 72.1533C692.549 72.5884 688.777 70.841 685.641 69.9674C682.507 69.0972 679.886 68.8762 679.234 69.3148C678.578 69.7499 677.486 73.027 676.174 72.8059C674.865 72.5884 673.992 67.1324 673.118 66.9113C672.244 66.6938 669.627 67.785 669.627 70.6235C669.627 73.462 671.592 78.0479 672.901 81.104C674.209 84.16 678.143 86.3424 680.107 86.9985C682.072 87.6547 683.381 90.0546 682.29 90.4932C681.199 90.9283 677.269 90.2721 676.613 90.7107C675.957 91.1458 673.118 97.2614 671.153 98.1316C669.188 99.0052 665.476 99.6614 665.915 99.0052C666.35 98.3526 669.627 92.8931 669.409 89.3985C669.188 85.9073 667.153 81.1039 665.88 78.483C664.606 75.862 666.28 72.3708 665.88 69.7499C665.476 67.1324 658.49 67.1324 656.308 68.0025C654.126 68.8762 651.722 72.3709 651.287 74.5533C650.849 76.7357 653.908 82.1951 656.091 84.3775C658.273 86.5599 656.964 88.7459 655.873 88.7459C654.778 88.7459 648.01 83.0688 644.08 81.104C640.151 79.1391 634.912 79.3566 632.947 79.5742C630.982 79.7952 630.109 83.0688 631.639 82.8513C633.165 82.6302 636.877 85.9073 636.877 86.56C636.877 87.2161 622.905 87.6547 620.941 88.0897C618.976 88.5283 616.572 87.2161 615.916 86.9985C615.264 86.781 599.324 97.479 598.45 97.2614C597.58 97.0404 597.359 91.3633 597.141 90.4932C596.924 89.6195 593.429 88.3073 592.776 88.0897C592.12 87.8722 591.903 91.5844 591.685 93.1107C591.464 94.6404 587.752 98.1316 587.752 98.1316L581.64 103.374C581.64 103.374 583.387 106.865 581.64 106.865C579.892 106.865 575.089 104.03 573.563 104.03C572.033 104.03 573.998 108.693 573.563 108.98C573.124 109.268 570.942 108.98 570.942 108.98C570.942 108.98 563.739 98.3526 564.612 97.479C565.486 96.6053 571.159 96.8228 572.251 98.3526C573.345 99.8789 572.033 100.317 573.345 99.8789C574.654 99.4438 579.675 98.7877 579.675 98.7877C579.675 98.7877 582.731 95.5141 582.731 94.6404C582.731 93.7668 561.335 80.0128 560.026 79.5742C558.718 79.1391 559.588 80.0128 556.753 80.0128C553.914 80.0128 552.82 79.7952 552.82 79.7952C552.82 79.7952 551.949 80.0127 552.82 78.0479C553.693 76.083 547.581 73.2445 546.925 73.027C546.272 72.8059 541.686 74.9918 541.03 74.9918C540.378 74.9918 537.101 74.3357 537.101 74.3357L529.213 78.2654C529.213 78.2654 524.003 79.1391 523.129 80.0128C522.255 80.8864 518.108 81.1039 517.452 81.7601C516.796 82.4127 510.249 87.4336 511.775 88.0897C513.305 88.7459 512.866 92.458 512.866 92.458C512.866 92.458 498.895 108.177 496.93 109.924C494.965 111.668 487.323 118.436 487.105 119.528C486.888 120.622 484.923 123.678 486.014 124.331C487.105 124.987 489.07 126.296 489.07 127.169C489.07 128.043 489.944 136.124 490.818 136.341C491.691 136.559 494.965 136.776 494.965 136.776C494.965 136.776 499.551 133.938 500.203 133.938C500.859 133.938 504.031 141.58 504.737 142.671C505.445 143.762 505.663 148.13 505.663 148.13L509.157 149.657C509.157 149.657 515.052 148.348 516.578 147.474C518.108 146.601 517.891 139.832 517.891 138.741C517.891 137.65 524.22 131.755 524.438 130.664C524.659 129.573 521.82 122.366 521.599 121.275C521.382 120.184 522.473 115.163 523.564 114.072C524.659 112.98 526.841 112.98 527.932 111.668C529.024 110.359 533.609 104.03 534.701 103.156C535.792 102.282 539.939 101.844 539.939 101.844C539.939 101.844 541.904 104.682 540.595 105.338C539.287 105.995 533.388 110.142 532.953 111.233C532.518 112.324 528.806 123.022 530.115 124.331C531.424 125.643 535.357 128.699 537.539 129.134C539.722 129.573 546.707 127.169 548.89 127.608C551.076 128.043 553.693 130.008 553.693 130.008C553.693 130.008 545.616 131.099 544.086 131.755C542.56 132.411 539.939 133.064 539.939 133.064C539.939 133.064 539.287 141.145 538.192 141.145C537.101 141.145 532.736 142.888 532.736 142.888C532.736 142.888 528.806 152.278 527.715 152.716C526.624 153.151 503.698 153.807 501.733 153.151L500.642 141.797C500.642 141.797 497.365 143.762 496.712 144.636C496.056 145.509 495.621 154.025 494.747 154.681C493.874 155.334 486.011 159.919 485.684 160.793C485.358 161.667 475.095 174.986 473.351 174.765C471.604 174.547 466.362 173.673 465.927 174.986C465.492 176.294 465.053 178.477 463.745 179.133C462.432 179.786 456.32 181.098 456.32 181.098C456.32 181.098 457.629 182.845 458.503 183.063C459.376 183.28 461.341 183.063 461.341 183.063C461.341 183.063 465.053 189.175 465.927 189.831C466.801 190.487 465.709 198.347 465.492 198.999C465.271 199.655 460.906 198.999 459.597 198.999C458.285 198.999 454.138 197.908 454.138 197.908C454.138 197.908 445.622 200.529 444.531 200.746C443.44 200.964 441.475 202.929 442.349 204.02C443.222 205.115 444.531 207.08 444.531 207.08L443.222 211.883L440.384 217.995C440.384 217.995 444.314 224.107 445.622 225.416C446.931 226.728 462.215 224.981 463.088 225.416C463.962 225.855 469.857 219.742 470.513 218.869C471.165 217.995 470.513 211.662 470.513 211.662C470.513 211.662 479.028 207.08 480.12 205.55C481.211 204.02 481.211 200.529 481.211 200.529C481.211 200.529 491.253 200.964 492.561 200.746C493.874 200.529 499.33 199.873 499.33 199.873C499.33 199.873 505.88 207.515 507.41 209.045C508.936 210.571 518.108 215.592 518.108 215.592C518.108 215.592 520.291 221.269 520.726 220.395C521.164 219.521 521.164 214.501 521.164 214.501C521.164 214.501 521.599 214.718 522.912 214.283C524.22 213.848 511.122 205.332 510.249 202.929C509.375 200.529 507.845 196.599 507.845 196.599C507.845 196.599 523.129 204.02 524.438 206.206C525.75 208.388 525.529 216.248 526.624 216.683C527.715 217.121 530.771 220.834 531.206 221.925C531.645 223.016 533.388 227.384 534.483 227.602C535.574 227.819 537.974 229.128 537.974 229.128C537.974 229.128 542.995 223.89 542.995 223.234C542.995 222.581 539.504 218.43 539.065 217.339C538.63 216.248 546.272 212.974 548.02 212.753C549.763 212.536 553.258 214.065 553.258 214.065C553.258 214.065 547.364 218.651 548.672 219.96C549.984 221.269 552.602 230.219 554.349 230.44C556.097 230.658 573.124 229.128 574.436 230.44C575.745 231.749 576.401 233.388 576.401 233.388C576.401 233.388 575.419 249.433 571.489 249.433C567.559 249.433 559.7 249.763 561.335 250.415C562.974 251.071 567.524 258.064 573.563 261.222C577.275 263.166 586.812 279.636 587.141 282.583C587.468 285.53 600.962 315.586 603.583 316.898C606.201 318.207 634.038 305.761 636.986 304.453C639.933 303.144 650.413 288.078 650.413 286.439C650.413 284.804 643.21 272.359 642.554 271.376C641.898 270.394 630.765 276.615 628.8 275.962C626.835 275.306 616.681 256.966 617.993 256.31C619.302 255.657 624.54 258.605 624.54 258.605C624.54 258.605 629.453 267.773 631.091 268.099C632.73 268.429 642.554 266.134 643.863 266.464C645.175 266.79 645.828 272.359 647.792 272.359C648.922 272.359 655.676 272.688 661.466 273.124L673.532 259.363V247.665V241.696V231.753L684.139 226.398L692.097 218.851L696.514 211.332V192.308V181.572L705.356 176.856L714.601 175.568L717.875 165.551V150.053L724.801 140.057H730.987H738.945V144.446L748.667 153.772H753.972L761.811 158.828H773.417L784.024 165.551L792.213 166.512L800.438 171.723H810.894L819.697 166.512L824.669 158.828L829.647 153.772V150.053L824.669 137.432L815.848 135.369L814.964 127.612L819.697 121.464H824.669L829.647 111.889H839.181L844.566 117.787H852.026L863.548 127.612L871.576 130.233H881.895L884.436 138.085C889.625 137.601 896.14 137.239 896.688 137.65C897.558 138.306 899.088 140.923 901.27 141.145C903.456 141.362 908.912 137.292 910.442 137.471C911.968 137.65 908.256 133.938 908.256 133.938C908.256 133.938 911.968 128.699 913.498 128.699C915.024 128.699 917.21 130.664 918.736 131.32C920.266 131.973 927.908 125.426 927.908 125.426C927.908 125.426 929.217 126.952 929.217 127.608C929.217 128.261 920.919 141.145 919.175 142.236C917.428 143.327 914.807 145.948 914.807 145.948C914.807 145.948 913.059 155.99 913.933 157.737C914.807 159.484 922.449 178.694 923.54 176.951C924.631 175.203 930.747 164.505 931.182 162.976C931.62 161.449 929.873 159.484 931.182 157.52C932.49 155.555 935.55 153.59 935.55 152.278C935.55 150.969 933.803 146.601 933.585 144.857C933.364 143.109 930.964 141.797 930.964 141.797C930.964 141.797 931.62 137.215 933.803 136.776C935.985 136.341 936.424 134.594 940.353 134.376C944.283 134.159 946.248 133.938 946.248 133.938C946.248 133.938 949.522 135.467 950.395 135.467C951.269 135.467 955.851 126.296 957.163 126.517C958.472 126.734 961.749 127.39 962.619 126.952C963.493 126.517 966.332 125.426 966.332 125.426C966.332 125.426 969.826 124.552 969.826 123.24C969.826 121.931 966.549 115.38 965.458 114.945C964.367 114.507 962.841 112.98 962.841 112.98C962.841 112.98 964.584 111.015 965.458 110.577C966.332 110.142 966.77 106.865 966.77 106.865C966.77 106.865 968.296 105.338 969.826 106.865C971.353 108.394 982.707 116.254 985.763 116.693L988.819 117.128V111.668C988.819 110.577 990.566 107.521 990.566 107.521C990.566 107.521 976.156 100.97 974.847 99.6614" fill="#167C51"/>
<path d="M871.577 130.233L863.549 127.608L852.026 117.787H844.567L839.181 111.886H829.648L824.669 121.464H819.697L814.964 127.608L815.848 135.369L824.669 137.432L829.648 150.053V153.772L824.669 158.825L819.697 166.512L810.894 171.719H800.435L792.214 166.512L784.024 165.551L773.418 158.825H761.811L753.973 153.772H748.667L738.945 144.446V140.053H730.987H724.801L717.875 150.053V165.551L714.602 175.565L705.353 176.856L696.514 181.572V192.305V211.332L692.093 218.851L684.139 226.399L673.533 231.753V241.696V247.665V259.359L661.466 273.12C665.75 273.443 669.505 273.822 670.062 274.166C671.371 274.976 681.525 284.801 681.525 284.801L678.904 286.765C678.904 286.765 682.508 291.025 684.146 291.351C685.781 291.681 692.006 289.06 692.006 289.06C692.006 289.06 693.971 303.47 694.297 304.779C694.623 306.088 703.795 334.582 706.742 334.252C709.689 333.926 712.637 328.357 714.275 324.428C715.91 320.498 714.928 311.656 716.567 309.365C718.205 307.07 723.117 307.07 723.77 305.105C724.426 303.141 727.373 296.263 727.373 296.263C727.373 296.263 735.563 295.281 735.889 293.972C736.215 292.664 737.527 288.734 737.527 288.734L746.696 284.801C746.696 284.801 748.987 292.334 750.625 292.664C752.264 292.99 758.815 299.211 758.815 299.211C758.815 299.211 757.176 308.382 758.158 308.709C759.141 309.035 767.983 308.053 767.983 308.053C767.983 308.053 770.712 319.407 768.856 321.263C768.856 321.263 770.495 334.691 771.695 337.529C772.895 340.368 778.572 345.606 779.446 347.897C780.319 350.192 779.446 354.666 781.193 356.63C782.937 358.595 788.614 362.637 790.035 363.29C791.452 363.946 790.796 359.143 791.017 357.834C791.235 356.522 789.379 357.069 789.379 353.683C789.379 350.301 789.27 349.753 788.723 348.227C788.179 346.697 779.435 338.182 778.182 337.199C776.933 336.217 775.186 334.034 774.86 332.834C774.533 331.635 774.642 325.849 774.642 324.649C774.642 323.445 778.014 319.189 778.182 319.189C778.354 319.189 784.575 326.614 785.884 327.596C787.196 328.578 790.144 335.891 791.561 336.329C792.982 336.764 802.041 326.393 803.133 324.319C804.224 322.245 805.206 312.968 803.133 310.891C801.059 308.818 795.929 305.979 795.382 303.579C794.838 301.176 793.091 297.028 794.182 295.39C795.273 293.755 799.312 290.699 800.185 290.478C801.059 290.26 804.445 292.664 805.536 292.551C806.627 292.443 809.136 291.569 810.448 291.351C811.757 291.134 823.329 285.457 825.729 282.618C828.132 279.78 837.956 264.717 837.63 262.313C837.63 262.313 834.732 257.949 835.416 256.636C836.1 255.328 837.637 252.054 837.637 252.054L828.567 239.283C828.567 239.283 836.697 232.076 835.416 230.767C834.135 229.458 819.016 228.802 819.697 227.164C820.381 225.525 826.932 216.683 827.915 216.683C828.897 216.683 830.532 223.56 830.532 223.56C830.532 223.56 838.721 221.595 840.03 222.578C841.342 223.56 841.342 228.802 842.321 230.767C843.307 232.732 847.237 242.23 848.872 241.9C850.51 241.574 851.819 236.988 855.423 236.662C859.026 236.335 855.423 229.458 855.423 226.507C855.423 223.56 850.51 222.578 851.167 218.978C851.819 215.374 854.766 208.824 859.352 208.171C863.938 207.515 869.833 202.603 872.78 198.673C875.727 194.743 879.331 180.989 877.692 175.747C876.054 170.509 875.727 162.976 875.727 162.976L868.742 161.228C868.742 161.228 863.721 161.884 863.721 161.228C863.721 160.576 860.443 156.864 860.443 156.864C860.443 156.864 876.548 139.615 878.103 138.959C878.685 138.713 881.324 138.376 884.436 138.085L881.896 130.233H871.577Z" fill="#F44A45"/>
<path d="M914.335 148.972L922.328 151.474L924.833 156.477L931.18 157.516V162.975L924.833 178.943L914.335 163.958L913.935 157.737L914.335 148.972Z" fill="#F44A45"/>
<path d="M804.228 360.771L807.719 362.672H812.136L816.006 363.353L819.701 360.771L823.631 355.599L827.385 351.732L827.904 349.192L831.143 346.873L833.153 345.031C833.153 345.031 829.764 343.111 828.602 343.775C827.437 344.438 825.508 345.697 825.508 345.697L818.69 352.22L816.115 353.494L811.915 358.472L808.491 359.027C808.491 359.027 804.463 360.297 804.228 360.771Z" fill="#F44A45"/>
<path d="M184.419 237.62H173.812L159.226 241.02L154.349 237.62L145.967 235.339L135.36 237.62L114.757 236.22C115.287 238.939 115.799 242.402 117.094 243.374C119.059 244.848 119.88 252.381 120.206 253.364C120.533 254.346 121.189 256.637 122.827 257.293C124.462 257.949 126.592 264.009 127.083 265.644C127.575 267.282 132.322 271.047 133.469 271.377C134.616 271.703 135.108 268.756 135.108 268.756C135.108 268.756 131.178 263.518 130.848 262.205C130.522 260.897 129.048 256.802 128.883 256.311C128.722 255.82 125.283 244.522 125.936 244.522C126.592 244.522 127.41 244.848 127.41 244.848C127.41 244.848 131.995 255.655 132.652 257.128C133.304 258.602 141.167 267.447 142.15 268.43C143.132 269.412 145.258 282.675 145.75 283.166C146.241 283.657 155.904 292.334 156.886 293.155C157.868 293.973 164.089 297.576 165.563 298.394C167.037 299.211 170.314 299.376 170.805 299.376C171.296 299.376 181.612 299.541 181.938 300.194C182.264 300.85 187.668 306.418 187.998 307.236C188.324 308.053 196.839 308.053 197.987 308.383C199.131 308.709 201.095 313.13 201.425 314.439C201.752 315.751 211.576 326.558 212.723 327.705C213.867 328.849 219.6 329.014 220.418 328.849C221.235 328.688 223.2 327.705 223.856 327.049C224.512 326.393 224.512 324.102 224.512 324.102C224.512 324.102 222.874 322.302 222.056 322.302H218.127C218.127 322.302 212.232 318.369 211.741 317.225C211.25 316.078 212.885 300.685 212.558 300.033C212.232 299.376 200.604 297.412 200.113 296.429C199.622 295.447 200.113 292.334 200.113 292.334C200.113 292.334 203.716 284.149 203.716 283.166C203.716 282.184 199.895 279.398 199.895 279.398C199.895 279.398 186.359 287.257 185.541 287.749C184.72 288.24 172.605 286.931 171.949 285.949C171.296 284.966 172.44 262.37 172.77 260.405C173.096 258.441 178.991 252.216 181.612 251.564C184.229 250.907 197.987 251.234 199.131 250.743C200.278 250.251 204.534 248.125 204.534 248.125L196.352 241.02L184.419 237.62Z" fill="#167C51"/>
<path d="M305.239 152.659L297.544 143C297.544 143 295.25 130.555 294.758 129.898C294.267 129.242 290.502 125.313 290.502 125.313C290.502 125.313 287.717 128.425 287.225 128.916L285.26 130.881L279.04 130.225C279.04 130.225 277.401 119.748 276.748 119.257C276.092 118.765 266.268 112.05 265.121 111.559C263.973 111.067 256.444 112.706 255.788 112.706C255.131 112.706 252.514 126.46 252.514 126.46C252.514 126.46 250.711 128.916 250.384 129.407C250.058 129.898 250.219 133.337 251.202 133.663C252.184 133.993 252.184 138.575 252.184 138.575L249.728 144.635C249.728 144.635 245.472 147.582 244.816 148.073C244.163 148.565 242.851 157.898 242.851 158.554C242.851 159.21 241.528 163.466 240.223 162.81C238.921 162.157 238.269 157.736 238.269 157.736L235.157 156.098C235.157 156.098 234.174 150.53 233.683 149.056C233.192 147.582 225.167 143.161 225.167 143.161C225.167 143.161 216.49 136.94 215.834 136.775C215.178 136.611 209.284 134.484 209.284 134.484L208.466 131.698C208.466 131.698 206.01 130.881 205.68 130.39C205.354 129.898 205.189 125.642 206.171 124.495C207.154 123.348 218.455 108.285 219.438 107.794C220.42 107.303 224.676 106.811 224.676 106.811C224.676 106.811 234.992 95.8397 236.3 95.0222C237.613 94.2011 242.69 93.0573 242.69 93.0573C242.69 93.0573 249.402 90.9276 250.058 90.4363C250.711 89.9451 251.858 79.4647 251.202 78.6472C250.549 77.8261 244.163 77.0086 243.507 77.3349C242.851 77.6647 242.69 81.1032 240.886 81.7594C239.086 82.412 234.174 86.9978 234.174 86.9978C234.174 86.9978 233.518 79.4647 233.027 79.4647C232.536 79.4647 228.441 79.2998 228.441 79.2998C228.441 79.2998 227.132 75.7911 226.641 76.1525C226.15 76.5174 224.35 76.1279 224.35 76.1279C224.35 76.1279 224.185 69.6404 223.529 67.8404C222.876 66.037 219.273 64.4019 219.273 64.4019C219.273 64.4019 214.196 71.2789 214.034 71.7701C213.869 72.2614 215.669 74.3876 215.669 74.3876L220.42 76.1911C220.42 76.1911 218.617 78.9735 218.455 79.791C218.29 80.612 215.017 81.5945 215.017 81.5945L213.543 78.8086L208.14 75.3701C208.14 75.3701 203.224 78.3173 203.554 79.2998C203.88 80.2822 205.68 80.9383 205.68 80.9383L204.045 82.7418C204.045 82.7418 195.694 83.3944 193.73 83.3944C191.765 83.3944 182.593 80.9383 181.611 81.1032C180.628 81.2646 179.319 84.5418 179.319 84.5418C179.319 84.5418 173.586 84.868 172.934 84.7066C172.277 84.5417 159.997 83.3944 160.162 82.9032C160.323 82.412 161.962 80.7734 161.962 80.7734L161.306 79.2998L148.86 77.8261C148.86 77.8261 147.387 76.1911 145.752 75.2087C144.113 74.2262 133.307 74.2262 133.307 74.2262C133.307 74.2262 131.998 72.4228 130.686 72.0965C129.377 71.7701 115.293 72.7526 115.293 72.7526C115.293 72.7526 108.907 77.0086 107.925 77.1735C106.942 77.3349 97.2829 76.3525 97.2829 76.3525C97.2829 76.3525 91.3883 72.2614 89.7497 72.0965C88.1112 71.9315 76.322 70.7877 75.3396 70.4579C74.3571 70.1316 70.7572 68.658 70.7572 68.658C70.7572 68.658 67.9713 69.6404 67.4801 69.6404C66.9889 69.6404 65.0241 68.0018 63.7153 67.1843C62.4031 66.3668 47.014 65.2194 45.7017 65.8756C44.393 66.5282 40.7896 68.3316 40.7896 68.3316C40.7896 68.3316 32.7652 71.114 32.1126 71.114C31.4565 71.114 30.1478 75.37 28.6741 75.8613C27.2005 76.3525 21.3059 76.6823 21.141 77.3349C20.9761 77.991 20.1585 80.4471 20.1585 80.4471C20.1585 80.4471 24.9058 83.233 25.2356 83.8856C25.5619 84.5418 24.7444 86.9978 25.8882 87.489C27.0356 87.9803 23.1058 88.9627 22.2883 88.7978C21.4673 88.6364 16.5551 90.4363 16.5551 90.4363C16.5551 90.4363 13.4464 93.8748 13.2815 94.531C13.1166 95.1836 13.2815 96.4958 13.2815 96.4958C13.2815 96.4958 23.762 96.3309 23.762 97.3133C23.762 98.2958 23.2707 101.078 23.2707 101.078C23.2707 101.078 16.5551 103.534 16.2288 104.517C15.9025 105.499 9.5132 110.415 9.1869 111.232C8.86059 112.05 9.02199 120.565 10.0044 121.221C10.9904 121.874 12.2991 122.695 12.2991 122.695C12.2991 122.695 12.2991 125.478 12.464 126.134C12.6254 126.786 23.762 127.607 23.762 127.607C23.762 127.607 24.2532 132.028 23.2707 132.355C22.2883 132.681 14.9201 135.793 12.7903 136.284C10.6605 136.775 0.509928 145.291 0.509928 145.291C0.509928 145.291 -0.63741 146.273 0.509928 146.438C1.65376 146.6 10.6605 141.526 11.1517 141.526C11.643 141.526 18.0288 141.196 20.3234 141.035C22.6146 140.87 29.4916 135.14 30.4741 134.155C31.4565 133.172 33.7477 129.081 33.7477 129.081C33.7477 129.081 38.0072 127.442 39.151 126.951C40.2984 126.46 41.6071 123.678 41.6071 123.678L48.3227 114.671C48.3227 114.671 51.5963 115.818 51.1051 116.309C50.6139 116.801 43.9018 122.53 44.393 122.857C44.8842 123.186 42.9194 125.969 43.9018 125.642C44.8842 125.313 51.27 121.874 52.5788 121.874C53.891 121.874 55.691 121.548 55.691 121.548C55.691 121.548 57.6558 118.274 58.312 118.274C58.9646 118.274 61.5856 121.222 62.2417 121.383C62.8943 121.548 77.1431 121.057 78.6167 121.548C80.0903 122.039 83.0376 125.151 83.0376 125.151C83.0376 125.151 88.2761 125.478 89.5848 125.478C90.8971 125.478 92.8619 128.099 92.8619 128.099C92.8619 128.099 97.6092 140.053 98.7565 141.688C99.9039 143.326 101.539 159.371 102.03 160.028C102.521 160.684 104.816 161.175 105.798 161.992C106.781 162.81 107.925 167.069 108.581 167.396C109.237 167.726 111.363 171.164 111.363 171.164C111.363 171.164 107.925 174.603 107.272 175.094C106.616 175.585 107.107 190.974 106.29 192.121C105.469 193.269 102.36 196.216 102.36 197.198C102.36 198.181 101.539 210.626 102.03 213.573C102.521 216.521 108.09 231.584 109.728 231.748C111.363 231.913 112.675 231.422 113.819 233.057C114.209 233.615 114.486 234.819 114.76 236.219L135.359 237.618L145.966 235.338L154.348 237.618L159.225 241.018L173.811 237.618H184.421L196.354 241.018L204.536 248.123C204.536 248.123 213.052 248.123 214.196 248.941C215.343 249.759 218.617 261.06 219.438 262.042C220.255 263.025 224.185 266.298 224.511 265.642C224.841 264.99 226.641 261.06 226.641 261.06C226.641 261.06 225.002 250.088 225.002 249.432C225.002 248.776 225.659 244.685 225.332 243.703C225.002 242.72 235.648 234.531 237.121 233.548C238.595 232.566 240.725 229.949 240.725 229.949C240.725 229.949 243.342 220.286 244.163 219.794C244.981 219.303 252.349 209.314 253.331 208.988C254.314 208.661 259.391 205.875 260.373 205.223C261.356 204.567 261.682 201.784 262.338 200.802C262.991 199.819 268.559 195.725 268.559 195.725C268.559 195.725 273.801 196.216 274.619 195.725C275.436 195.234 279.04 195.725 279.04 195.725L288.208 189.992C288.208 189.992 280.84 183.444 279.857 183.606C278.875 183.771 278.713 177.711 279.205 176.894C279.696 176.076 281.169 173.455 281.169 173.455C281.169 173.455 281.004 170.673 281.661 170.343C282.313 170.017 289.681 169.199 289.681 169.199C289.681 169.199 293.615 170.343 294.597 170.343C295.58 170.343 308.677 160.845 308.677 160.845C308.677 160.845 308.351 155.28 308.677 154.789C309.004 154.298 305.239 152.659 305.239 152.659Z" fill="#F44A45"/>
<path d="M473.674 175.082L479.853 176.854L483.084 175.97C483.084 175.97 485.624 176.665 487.105 175.97L488.586 175.272V171.198L486.259 168.528L481.088 166.584C481.088 166.584 475.053 173.535 473.674 175.082Z" fill="#F44A45"/>
</svg>
